<svg height="32" viewBox="0 0 32 32" width="32" xmlns="http://www.w3.org/2000/svg"><path d="m20 25a6.9908 6.9908 0 0 1 -5.833-3.1287l1.666-1.1074a5.0007 5.0007 0 0 0 8.334 0l1.666 1.1074a6.9908 6.9908 0 0 1 -5.833 3.1287z"/><path d="m24 14a2 2 0 1 0 2 2 1.9806 1.9806 0 0 0 -2-2z"/><path d="m16 14a2 2 0 1 0 2 2 1.9806 1.9806 0 0 0 -2-2z"/><path d="m28 8h-6v-4a2.0023 2.0023 0 0 0 -2-2h-16a2.0023 2.0023 0 0 0 -2 2v10a10.01 10.01 0 0 0 8.8027 9.9214 9.9989 9.9989 0 0 0 19.1973-3.9214v-10a2.0023 2.0023 0 0 0 -2-2zm-24 6v-10h16v4h-8a2.0023 2.0023 0 0 0 -2 2v10a9.9628 9.9628 0 0 0 .168 1.78 8.0081 8.0081 0 0 1 -6.168-7.78zm24 6a8 8 0 0 1 -16 0v-10h16z"/><path d="m0 0h32v32h-32z" fill="none"/></svg>